<svg id="Capa_1" enable-background="new 0 0 512.278 512.278" height="512" viewBox="0 0 512.278 512.278" width="512" xmlns="http://www.w3.org/2000/svg"><g><g fill="#fff"><path d="m416.699 444.856 28.284-28.284 14.142 14.142c7.81 7.81 7.81 20.474 0 28.284-7.81 7.81-20.474 7.81-28.284 0z"/><path d="m95.834 444.856-28.284-28.284-14.142 14.142c-7.81 7.81-7.81 20.474 0 28.284 7.81 7.81 20.474 7.81 28.284 0z"/><path d="m416.699 67.422 28.284 28.284 14.142-14.142c7.81-7.81 7.81-20.474 0-28.284-7.81-7.81-20.474-7.81-28.284 0z"/><path d="m95.834 67.422-28.285 28.285-14.142-14.143c-7.81-7.81-7.81-20.474 0-28.284 7.81-7.81 20.474-7.81 28.284 0z"/><path d="m161.999 28.865c-125.52 51.992-185.126 195.894-133.134 321.414s195.894 185.126 321.414 133.134 185.126-195.894 133.134-321.414-195.894-185.126-321.414-133.134zm150.777 364.008c-75.516 31.28-162.092-4.581-193.371-80.097-31.28-75.516 4.581-162.091 80.097-193.371s162.091 4.581 193.371 80.097-4.58 162.091-80.097 193.371z"/></g><path d="m119.405 199.502-90.54-37.503c-24.093 58.164-25.996 125.52 0 188.28l90.54-37.503c-15.64-37.758-14.495-78.281 0-113.274z" fill="#ffdfe5"/><path d="m312.776 119.405 37.503-90.54c-58.164-24.093-125.52-25.996-188.28 0l37.503 90.54c37.758-15.64 78.281-14.495 113.274 0z" fill="#ffdfe5"/><path d="m392.873 312.776 90.54 37.503c24.093-58.164 25.996-125.52 0-188.28l-90.54 37.503c15.64 37.758 14.495 78.281 0 113.274z" fill="#ffdfe5"/><path d="m199.502 392.873-37.503 90.54c58.164 24.093 125.52 25.996 188.28 0l-37.503-90.54c-37.758 15.64-78.281 14.495-113.274 0z" fill="#ffdfe5"/><g><path d="m336.679 198.765c-22.206-22.206-58.208-22.206-80.413 0-22.205-22.205-58.208-22.205-80.413 0-22.206 22.205-22.206 58.208 0 80.413l70.421 70.421c5.519 5.519 14.466 5.519 19.985 0l70.421-70.421c22.205-22.206 22.205-58.208-.001-80.413z" fill="#ff9eb2"/></g><g fill="#ff5d7f"><path d="m492.653 158.172c-9.124-22.027-21.056-42.35-35.397-60.596l8.941-8.941c11.696-11.697 11.696-30.729 0-42.427-5.667-5.666-13.2-8.787-21.214-8.787s-15.547 3.121-21.213 8.787l-8.927 8.927c-18.283-14.391-38.652-26.362-60.737-35.51-63.173-26.167-132.757-26.168-195.934 0-22.027 9.124-42.35 21.056-60.596 35.397l-8.814-8.814c-5.666-5.667-13.199-8.787-21.213-8.787s-15.547 3.121-21.214 8.787c-11.696 11.697-11.696 30.729 0 42.427l8.801 8.8c-14.39 18.282-26.362 38.652-35.51 60.736-26.168 63.175-26.169 132.759-.001 195.934 9.148 22.085 21.119 42.454 35.51 60.737l-8.8 8.8c-11.696 11.697-11.696 30.729 0 42.427 5.667 5.666 13.2 8.787 21.214 8.787s15.547-3.121 21.213-8.787l8.814-8.814c18.246 14.341 38.568 26.273 60.596 35.397 31.591 13.085 64.773 19.627 97.967 19.626 33.186-.001 66.383-6.543 97.967-19.626 22.085-9.148 42.454-21.119 60.737-35.51l8.927 8.927c5.666 5.667 13.199 8.787 21.213 8.787s15.547-3.121 21.214-8.787c11.696-11.697 11.696-30.729 0-42.427l-8.942-8.941c14.341-18.246 26.273-38.568 35.397-60.595 26.168-63.175 26.169-132.759.001-195.934zm-54.74-97.821c1.889-1.889 4.399-2.929 7.07-2.929 2.672 0 5.183 1.04 7.071 2.929 1.889 1.889 2.929 4.4 2.929 7.071s-1.04 5.182-2.929 7.071l-7.818 7.818c-4.524-4.901-9.24-9.619-14.137-14.146zm-377.435 14.142c-1.889-1.889-2.929-4.4-2.929-7.071s1.04-5.182 2.929-7.071 4.399-2.929 7.071-2.929c2.671 0 5.182 1.04 7.07 2.929l7.691 7.691c-4.901 4.524-9.619 9.239-14.146 14.137zm14.142 377.434c-1.889 1.889-4.399 2.929-7.07 2.929-2.672 0-5.183-1.04-7.071-2.929-1.889-1.889-2.929-4.4-2.929-7.071s1.04-5.182 2.929-7.071l7.687-7.686c4.528 4.898 9.246 9.613 14.146 14.137zm377.434-14.142c1.889 1.889 2.929 4.4 2.929 7.071s-1.04 5.182-2.929 7.071-4.399 2.929-7.071 2.929c-2.671 0-5.182-1.04-7.07-2.929l-7.814-7.813c4.898-4.528 9.613-9.245 14.137-14.146zm22.12-91.333c-24.123 58.24-69.482 103.599-127.723 127.723-58.238 24.123-122.386 24.123-180.626 0-58.239-24.124-103.599-69.483-127.722-127.722-24.124-58.239-24.124-122.387 0-180.626 24.123-58.24 69.482-103.599 127.723-127.723 29.119-12.062 59.716-18.093 90.312-18.093s61.193 6.031 90.313 18.093c58.239 24.124 103.599 69.483 127.722 127.722 24.125 58.239 24.125 122.387.001 180.626z"/><path d="m402.112 195.675c-33.339-80.49-125.944-118.849-206.437-85.509-80.489 33.34-118.849 125.947-85.509 206.437 25.178 60.785 84.145 97.538 146.179 97.538 20.109 0 40.553-3.866 60.258-12.028 80.489-33.341 118.849-125.948 85.509-206.438zm-93.163 187.96c-70.303 29.119-151.185-4.384-180.305-74.685s4.384-151.186 74.686-180.306c17.215-7.13 35.062-10.506 52.63-10.506 54.177 0 105.686 32.105 127.675 85.191 29.119 70.301-4.385 151.186-74.686 180.306z"/></g></g></svg>